# xmcd
#
# Track frame offsets:
#	183
#	10413
#	21485
#	31523
#	42995
#	63683
#	75035
#	83288
#	94330
#	104838
#	115915
#	124408
#	133650
#	140508
#	156123
#	167153
#	181228
#	191850
#
# Disc length: 2662 seconds
#
# Revision: 2
# Processed by: cddbd v1.5.2PL0 Copyright (c) Steve Scherf et al.
# Submitted via: audiograbber 1.83.01
#
DISCID=f10a6412
DTITLE=Fats Domino - blueberry hill
DYEAR=1900
DGENRE=
TTITLE0=My girl Josephine
TTITLE1=The fat man
TTITLE2=I'm gonna be a wheel someday
TTITLE3=Blue monday
TTITLE4=Jambalaya (on the bayou)
TTITLE5=Blueberry hill
TTITLE6=When the saints go marching in
TTITLE7=Fats boogie
TTITLE8=I can't go on
TTITLE9=Going to the river
TTITLE10=I'm ready
TTITLE11=I want to walk you home
TTITLE12=Whole lotta loving
TTITLE13=I almost lost my mind
TTITLE14=Ain't that a shame
TTITLE15=I'm in love again
TTITLE16=Walking to New Orleans
TTITLE17=Poor me
EXTD=
EXTT0=
EXTT1=
EXTT2=
EXTT3=
EXTT4=
EXTT5=
EXTT6=
EXTT7=
EXTT8=
EXTT9=
EXTT10=
EXTT11=
EXTT12=
EXTT13=
EXTT14=
EXTT15=
EXTT16=
EXTT17=
PLAYORDER=
